<?xml version="1.0" encoding="utf-8"?>
<!-- Generator: Adobe Illustrator 17.0.0, SVG Export Plug-In . SVG Version: 6.00 Build 0)  -->
<!DOCTYPE svg PUBLIC "-//W3C//DTD SVG 1.1//EN" "http://www.w3.org/Graphics/SVG/1.1/DTD/svg11.dtd">
<svg version="1.1" id="Layer_1" xmlns="http://www.w3.org/2000/svg" xmlns:xlink="http://www.w3.org/1999/xlink" x="0px" y="0px"
	 width="852px" height="420px" viewBox="0 0 852 420" enable-background="new 0 0 852 420" xml:space="preserve">
<g>
	
		<linearGradient id="SVGID_1_" gradientUnits="userSpaceOnUse" x1="233.785" y1="650.2655" x2="1069.9341" y2="650.2655" gradientTransform="matrix(1 0 0 1 -234 -371)">
		<stop  offset="0" style="stop-color:#FFFFFF;stop-opacity:0"/>
		<stop  offset="0.0982" style="stop-color:#C5C2C2"/>
		<stop  offset="0.908" style="stop-color:#D9D9D9"/>
		<stop  offset="0.9939" style="stop-color:#FFFFFF;stop-opacity:0"/>
	</linearGradient>
	<polygon fill="url(#SVGID_1_)" points="835.3,393.846 -0.215,165.806 0.417,164.685 835.934,390.31 	"/>
	
		<linearGradient id="SVGID_2_" gradientUnits="userSpaceOnUse" x1="233.063" y1="651.8075" x2="1069.213" y2="651.8075" gradientTransform="matrix(1 0 0 1 -234 -371)">
		<stop  offset="0" style="stop-color:#FFFFFF;stop-opacity:0"/>
		<stop  offset="0.0982" style="stop-color:#FFFFFF"/>
		<stop  offset="0.908" style="stop-color:#FFFFFF"/>
		<stop  offset="0.9939" style="stop-color:#FFFFFF;stop-opacity:0"/>
	</linearGradient>
	<polygon fill="url(#SVGID_2_)" points="834.578,395.388 -0.937,167.348 -0.304,166.227 835.213,394.267 	"/>
</g>
<g>
	<g>
		<path opacity="0.1" fill="#59322D" enable-background="new    " d="M660.085,271.049H660l2.373,71.917l138.657-71.648h-0.085
			c14.986-7.447,27.921-16.24,36.878-25.676c25.544-26.91,9.129-48.799-36.658-48.885c-45.786-0.086-103.615,21.658-129.161,48.566
			C663.05,254.759,659.267,263.571,660.085,271.049z"/>
		<path fill="#76B843" d="M589.632,215.679h-0.089l73.488,127.287l73.488-127.287h-0.088c8.233-13.231,13.003-28.843,13.003-45.573
			c0-47.721-38.685-86.403-86.403-86.403c-47.717,0-86.402,38.683-86.402,86.403C576.629,186.836,581.401,202.447,589.632,215.679z"
			/>
	</g>
	<g>
		<g opacity="0.25">
			<path fill="#FFFFFD" d="M595.79,144.907h24.612v7.239h-8.325v43.433h-7.963v-43.433h-8.324V144.907z"/>
			<path fill="#FFFFFD" d="M623.223,157.069c0-8.107,4.271-12.74,12.089-12.74c7.817,0,12.089,4.633,12.089,12.74v26.349
				c0,8.107-4.271,12.74-12.089,12.74s-12.089-4.633-12.089-12.74V157.069z M631.186,183.925c0,3.619,1.592,4.994,4.126,4.994
				c2.533,0,4.126-1.375,4.126-4.994v-27.362c0-3.62-1.593-4.995-4.126-4.995c-2.534,0-4.126,1.375-4.126,4.995V183.925z"/>
			<path fill="#FFFFFD" d="M652.538,144.907h12.596c7.962,0,11.871,4.416,11.871,12.523v25.625c0,8.107-3.909,12.523-11.871,12.523
				h-12.596V144.907z M660.501,152.146v36.194h4.487c2.534,0,4.055-1.304,4.055-4.923v-26.349c0-3.62-1.521-4.923-4.055-4.923
				h-4.487V152.146z"/>
			<path fill="#FFFFFD" d="M707.768,195.579h-8.034l-1.376-9.193h-9.772l-1.375,9.193h-7.312l8.107-50.672h11.654L707.768,195.579z
				 M689.599,179.509h7.673l-3.836-25.625L689.599,179.509z"/>
			<path fill="#FFFFFD" d="M715.367,178.785l-10.062-33.878h8.325l6.08,23.092l6.081-23.092h7.601l-10.062,33.878v16.794h-7.963
				V178.785z"/>
		</g>
		<g>
			<g>
				<path fill="#FFFFFF" d="M596.79,145.907h24.612v7.239h-8.325v43.433h-7.963v-43.433h-8.324V145.907z"/>
				<path fill="#FFFFFF" d="M624.223,158.069c0-8.107,4.271-12.74,12.089-12.74c7.817,0,12.089,4.633,12.089,12.74v26.349
					c0,8.107-4.271,12.74-12.089,12.74s-12.089-4.633-12.089-12.74V158.069z M632.186,184.925c0,3.619,1.592,4.994,4.126,4.994
					c2.533,0,4.126-1.375,4.126-4.994v-27.362c0-3.62-1.593-4.995-4.126-4.995c-2.534,0-4.126,1.375-4.126,4.995V184.925z"/>
				<path fill="#FFFFFF" d="M653.538,145.907h12.596c7.962,0,11.871,4.416,11.871,12.523v25.625c0,8.107-3.909,12.523-11.871,12.523
					h-12.596V145.907z M661.501,153.146v36.194h4.487c2.534,0,4.055-1.304,4.055-4.923v-26.349c0-3.62-1.521-4.923-4.055-4.923
					h-4.487V153.146z"/>
				<path fill="#FFFFFF" d="M708.768,196.579h-8.034l-1.376-9.193h-9.772l-1.375,9.193h-7.312l8.107-50.672h11.654L708.768,196.579z
					 M690.599,180.509h7.673l-3.836-25.625L690.599,180.509z"/>
				<path fill="#FFFFFF" d="M716.367,179.785l-10.062-33.878h8.325l6.08,23.092l6.081-23.092h7.601l-10.062,33.878v16.794h-7.963
					V179.785z"/>
			</g>
		</g>
	</g>
	<g>
		<polygon fill="#213C75" points="786.138,249.411 712.468,249.411 712.468,294.228 786.138,294.228 768.684,271.818 		"/>
		<polygon fill="#213C75" points="538.904,249.411 612.562,249.411 612.562,294.228 538.904,294.228 556.354,271.818 		"/>
		<polygon points="755.14,287.088 712.468,294.228 712.468,287.088 		"/>
		<polygon points="569.898,287.088 612.562,294.228 612.562,287.088 		"/>
	</g>
	<g>
		<rect x="569.898" y="242.268" fill="#4A5687" width="185.241" height="44.82"/>
	</g>
	<g>
		<path fill="#FFFFFF" d="M600.191,261.442v-11.308h1.314v11.308H600.191z"/>
		<path fill="#FFFFFF" d="M613.44,261.442h-1.501l-6.18-9.49h-0.062c0.082,1.113,0.123,2.135,0.123,3.062v6.428h-1.214v-11.308
			h1.485l6.164,9.451h0.062c-0.011-0.139-0.034-0.586-0.07-1.342s-0.049-1.296-0.038-1.62v-6.489h1.229v11.308H613.44z"/>
		<path fill="#FFFFFF" d="M623.627,249.972c1.031,0,1.849,0.24,2.452,0.72s0.905,1.142,0.905,1.987c0,0.558-0.173,1.065-0.519,1.524
			s-0.897,0.876-1.655,1.253c0.918,0.438,1.57,0.898,1.957,1.38c0.387,0.482,0.58,1.041,0.58,1.675c0,0.938-0.327,1.688-0.982,2.247
			c-0.654,0.56-1.552,0.839-2.691,0.839c-1.207,0-2.135-0.264-2.784-0.792c-0.65-0.529-0.975-1.278-0.975-2.247
			c0-1.295,0.789-2.303,2.366-3.024c-0.711-0.402-1.222-0.837-1.531-1.304c-0.31-0.466-0.464-0.988-0.464-1.566
			c0-0.819,0.303-1.473,0.909-1.96C621.801,250.216,622.611,249.972,623.627,249.972z M621.184,258.588
			c0,0.619,0.215,1.102,0.646,1.447c0.431,0.345,1.035,0.518,1.813,0.518c0.769,0,1.366-0.181,1.795-0.541
			c0.428-0.361,0.642-0.856,0.642-1.485c0-0.5-0.201-0.944-0.604-1.334c-0.401-0.39-1.104-0.768-2.104-1.134
			c-0.769,0.33-1.325,0.695-1.671,1.095S621.184,258.031,621.184,258.588z M623.612,251.016c-0.646,0-1.15,0.155-1.517,0.465
			c-0.366,0.309-0.549,0.722-0.549,1.237c0,0.475,0.152,0.882,0.456,1.222c0.305,0.341,0.866,0.681,1.687,1.021
			c0.737-0.31,1.259-0.643,1.566-0.998s0.46-0.771,0.46-1.245c0-0.521-0.188-0.935-0.561-1.241
			C624.781,251.17,624.267,251.016,623.612,251.016z"/>
		<path fill="#FFFFFF" d="M636.437,255.772c0,1.955-0.309,3.414-0.925,4.378c-0.616,0.965-1.559,1.446-2.827,1.446
			c-1.217,0-2.142-0.493-2.776-1.48s-0.951-2.436-0.951-4.344c0-1.97,0.307-3.431,0.92-4.385c0.614-0.954,1.55-1.432,2.808-1.432
			c1.228,0,2.159,0.498,2.797,1.493C636.118,252.444,636.437,253.886,636.437,255.772z M630.256,255.772
			c0,1.646,0.193,2.843,0.58,3.593c0.388,0.751,1.003,1.126,1.849,1.126c0.856,0,1.477-0.381,1.86-1.141
			c0.385-0.761,0.576-1.953,0.576-3.578c0-1.624-0.191-2.813-0.576-3.569c-0.384-0.755-1.004-1.133-1.86-1.133
			c-0.846,0-1.461,0.372-1.849,1.117C630.449,252.933,630.256,254.128,630.256,255.772z"/>
		<path fill="#FFFFFF" d="M647.736,251.147c-1.242,0-2.224,0.414-2.943,1.241c-0.719,0.828-1.078,1.961-1.078,3.399
			c0,1.48,0.347,2.624,1.04,3.431s1.682,1.21,2.966,1.21c0.789,0,1.688-0.142,2.699-0.425v1.152c-0.783,0.294-1.75,0.44-2.9,0.44
			c-1.665,0-2.95-0.505-3.855-1.516s-1.357-2.446-1.357-4.309c0-1.165,0.218-2.186,0.653-3.062s1.065-1.552,1.888-2.026
			s1.79-0.712,2.904-0.712c1.186,0,2.223,0.217,3.109,0.65l-0.557,1.129C649.448,251.349,648.593,251.147,647.736,251.147z"/>
		<path fill="#FFFFFF" d="M662.703,255.772c0,1.811-0.458,3.233-1.373,4.27s-2.188,1.555-3.817,1.555
			c-1.665,0-2.95-0.509-3.855-1.527s-1.357-2.456-1.357-4.312c0-1.841,0.454-3.269,1.361-4.281c0.907-1.014,2.196-1.521,3.867-1.521
			c1.624,0,2.893,0.516,3.806,1.547C662.247,252.535,662.703,253.958,662.703,255.772z M653.692,255.772
			c0,1.532,0.326,2.693,0.979,3.485c0.652,0.791,1.6,1.187,2.842,1.187c1.253,0,2.199-0.395,2.839-1.184
			c0.64-0.788,0.959-1.951,0.959-3.488c0-1.521-0.318-2.675-0.955-3.461s-1.579-1.18-2.827-1.18c-1.253,0-2.205,0.396-2.857,1.188
			C654.019,253.111,653.692,254.262,653.692,255.772z"/>
		<path fill="#FFFFFF" d="M673.764,250.135v7.316c0,1.289-0.39,2.303-1.168,3.04s-1.849,1.105-3.21,1.105s-2.414-0.371-3.159-1.113
			s-1.118-1.764-1.118-3.063v-7.285h1.315v7.378c0,0.944,0.258,1.669,0.773,2.174c0.516,0.506,1.273,0.758,2.273,0.758
			c0.954,0,1.688-0.254,2.204-0.762s0.774-1.236,0.774-2.185v-7.363L673.764,250.135L673.764,250.135z"/>
		<path fill="#FFFFFF" d="M685.59,261.442h-1.501l-6.18-9.49h-0.062c0.082,1.113,0.123,2.135,0.123,3.062v6.428h-1.214v-11.308
			h1.485l6.164,9.451h0.062c-0.011-0.139-0.034-0.586-0.07-1.342s-0.049-1.296-0.038-1.62v-6.489h1.229v11.308H685.59z"/>
		<path fill="#FFFFFF" d="M692.18,261.442h-1.314v-10.14h-3.581v-1.168h8.477v1.168h-3.581L692.18,261.442L692.18,261.442z"/>
		<path fill="#FFFFFF" d="M698.776,256.739v4.703h-1.314v-11.308h3.102c1.387,0,2.412,0.266,3.074,0.796
			c0.663,0.531,0.994,1.331,0.994,2.398c0,1.495-0.758,2.506-2.273,3.031l3.07,5.082h-1.555l-2.738-4.703h-2.36V256.739z
			 M698.776,255.61h1.803c0.928,0,1.608-0.185,2.042-0.553c0.433-0.369,0.649-0.922,0.649-1.659c0-0.748-0.221-1.286-0.661-1.616
			c-0.441-0.33-1.148-0.495-2.123-0.495h-1.71L698.776,255.61L698.776,255.61z"/>
		<path fill="#FFFFFF" d="M707.255,261.442v-11.308h1.314v11.308H707.255z"/>
		<path fill="#FFFFFF" d="M717.975,261.442h-6.304v-11.308h6.304v1.168h-4.989v3.643h4.688v1.16h-4.688v4.161h4.989V261.442z"/>
		<path fill="#FFFFFF" d="M726.861,258.434c0,0.995-0.36,1.771-1.083,2.328c-0.722,0.557-1.701,0.835-2.938,0.835
			c-1.341,0-2.372-0.172-3.094-0.518v-1.269c0.464,0.196,0.969,0.351,1.516,0.464s1.088,0.17,1.624,0.17
			c0.877,0,1.537-0.166,1.98-0.499c0.443-0.332,0.665-0.795,0.665-1.388c0-0.392-0.079-0.713-0.236-0.963s-0.42-0.481-0.789-0.692
			c-0.368-0.212-0.929-0.451-1.682-0.72c-1.052-0.376-1.804-0.822-2.255-1.338s-0.677-1.188-0.677-2.019
			c0-0.871,0.327-1.565,0.982-2.081c0.654-0.516,1.521-0.773,2.599-0.773c1.124,0,2.158,0.206,3.102,0.619l-0.41,1.145
			c-0.933-0.392-1.841-0.588-2.723-0.588c-0.695,0-1.24,0.149-1.632,0.448c-0.392,0.3-0.588,0.715-0.588,1.246
			c0,0.392,0.072,0.713,0.217,0.963s0.388,0.479,0.731,0.688c0.343,0.208,0.867,0.439,1.573,0.691
			c1.187,0.424,2.002,0.877,2.448,1.361C726.639,257.031,726.861,257.66,726.861,258.434z"/>
		<path fill="#FFFFFF" d="M591.177,278.723l-1.408-3.597h-4.532l-1.393,3.597h-1.33l4.471-11.354h1.106l4.447,11.354H591.177z
			 M589.358,273.942l-1.314-3.504c-0.17-0.443-0.346-0.987-0.526-1.632c-0.113,0.495-0.275,1.039-0.487,1.632l-1.33,3.504H589.358z"
			/>
		<path fill="#FFFFFF" d="M595.407,274.02v4.703h-1.314v-11.308h3.102c1.387,0,2.412,0.266,3.074,0.796
			c0.663,0.531,0.994,1.331,0.994,2.398c0,1.495-0.758,2.506-2.273,3.031l3.07,5.082h-1.555l-2.738-4.703h-2.36V274.02z
			 M595.407,272.891h1.803c0.928,0,1.608-0.185,2.042-0.553c0.433-0.369,0.649-0.922,0.649-1.659c0-0.748-0.221-1.286-0.661-1.616
			c-0.441-0.33-1.148-0.495-2.123-0.495h-1.71L595.407,272.891L595.407,272.891z"/>
		<path fill="#FFFFFF" d="M613.7,273.053c0,1.811-0.458,3.233-1.373,4.27s-2.188,1.555-3.817,1.555c-1.665,0-2.95-0.509-3.855-1.527
			s-1.357-2.456-1.357-4.312c0-1.841,0.454-3.269,1.361-4.281c0.907-1.014,2.196-1.521,3.867-1.521c1.624,0,2.893,0.516,3.806,1.547
			C613.244,269.815,613.7,271.238,613.7,273.053z M604.689,273.053c0,1.532,0.326,2.693,0.979,3.485
			c0.652,0.791,1.6,1.187,2.842,1.187c1.253,0,2.199-0.395,2.839-1.184c0.64-0.788,0.959-1.951,0.959-3.488
			c0-1.521-0.318-2.675-0.955-3.461s-1.579-1.18-2.827-1.18c-1.253,0-2.205,0.396-2.857,1.188
			C605.016,270.392,604.689,271.542,604.689,273.053z"/>
		<path fill="#FFFFFF" d="M624.761,267.415v7.316c0,1.289-0.39,2.303-1.168,3.04s-1.849,1.105-3.21,1.105s-2.414-0.371-3.159-1.113
			s-1.118-1.764-1.118-3.063v-7.285h1.315v7.378c0,0.944,0.258,1.669,0.773,2.174c0.516,0.506,1.273,0.758,2.273,0.758
			c0.954,0,1.688-0.254,2.204-0.762s0.774-1.236,0.774-2.185v-7.363L624.761,267.415L624.761,267.415z"/>
		<path fill="#FFFFFF" d="M636.587,278.723h-1.501l-6.18-9.49h-0.062c0.082,1.113,0.123,2.135,0.123,3.062v6.428h-1.214v-11.308
			h1.485l6.164,9.451h0.062c-0.011-0.139-0.034-0.586-0.07-1.342s-0.049-1.296-0.038-1.62v-6.489h1.229v11.308H636.587z"/>
		<path fill="#FFFFFF" d="M648.723,272.96c0,1.867-0.507,3.294-1.52,4.281c-1.014,0.987-2.472,1.481-4.374,1.481h-3.133v-11.308
			h3.465c1.759,0,3.125,0.487,4.1,1.461C648.235,269.851,648.723,271.212,648.723,272.96z M647.33,273.007
			c0-1.475-0.37-2.586-1.109-3.334c-0.74-0.747-1.84-1.121-3.299-1.121h-1.911v9.034h1.602c1.567,0,2.746-0.386,3.534-1.156
			C646.936,275.658,647.33,274.518,647.33,273.007z"/>
		<path fill="#FFFFFF" d="M658.839,278.723h-1.314v-10.14h-3.581v-1.168h8.477v1.168h-3.581L658.839,278.723L658.839,278.723z"/>
		<path fill="#FFFFFF" d="M672.707,278.723h-1.314v-5.321h-5.956v5.321h-1.314v-11.308h1.314v4.811h5.956v-4.811h1.314V278.723z"/>
		<path fill="#FFFFFF" d="M682.112,278.723h-6.304v-11.308h6.304v1.168h-4.989v3.643h4.688v1.16h-4.688v4.161h4.989V278.723z"/>
		<path fill="#FFFFFF" d="M698.603,278.723h-1.299l-2.282-7.572c-0.108-0.335-0.229-0.758-0.363-1.269s-0.204-0.817-0.209-0.92
			c-0.113,0.681-0.294,1.426-0.541,2.235l-2.213,7.525h-1.299l-3.009-11.308h1.392l1.787,6.984c0.248,0.979,0.428,1.866,0.542,2.66
			c0.139-0.943,0.345-1.866,0.618-2.769l2.026-6.876h1.393l2.127,6.938c0.247,0.8,0.456,1.702,0.627,2.707
			c0.098-0.732,0.283-1.624,0.557-2.676l1.778-6.969h1.393L698.603,278.723z"/>
		<path fill="#FFFFFF" d="M713.214,273.053c0,1.811-0.458,3.233-1.373,4.27s-2.188,1.555-3.817,1.555
			c-1.665,0-2.95-0.509-3.855-1.527s-1.357-2.456-1.357-4.312c0-1.841,0.454-3.269,1.361-4.281c0.907-1.014,2.196-1.521,3.867-1.521
			c1.624,0,2.893,0.516,3.806,1.547C712.758,269.815,713.214,271.238,713.214,273.053z M704.203,273.053
			c0,1.532,0.326,2.693,0.979,3.485c0.652,0.791,1.6,1.187,2.842,1.187c1.253,0,2.199-0.395,2.839-1.184
			c0.64-0.788,0.959-1.951,0.959-3.488c0-1.521-0.318-2.675-0.955-3.461s-1.579-1.18-2.827-1.18c-1.253,0-2.205,0.396-2.857,1.188
			C704.529,270.392,704.203,271.542,704.203,273.053z"/>
		<path fill="#FFFFFF" d="M717.05,274.02v4.703h-1.314v-11.308h3.102c1.387,0,2.412,0.266,3.074,0.796
			c0.663,0.531,0.994,1.331,0.994,2.398c0,1.495-0.758,2.506-2.273,3.031l3.07,5.082h-1.555l-2.738-4.703h-2.36V274.02z
			 M717.05,272.891h1.803c0.928,0,1.608-0.185,2.042-0.553c0.433-0.369,0.649-0.922,0.649-1.659c0-0.748-0.221-1.286-0.661-1.616
			c-0.441-0.33-1.148-0.495-2.123-0.495h-1.71L717.05,272.891L717.05,272.891z"/>
		<path fill="#FFFFFF" d="M725.527,278.723v-11.308h1.314v10.116h4.989v1.191h-6.303L725.527,278.723L725.527,278.723z"/>
		<path fill="#FFFFFF" d="M742.775,272.96c0,1.867-0.507,3.294-1.52,4.281c-1.014,0.987-2.472,1.481-4.374,1.481h-3.133v-11.308
			h3.465c1.759,0,3.125,0.487,4.1,1.461C742.288,269.851,742.775,271.212,742.775,272.96z M741.383,273.007
			c0-1.475-0.37-2.586-1.109-3.334c-0.74-0.747-1.84-1.121-3.299-1.121h-1.911v9.034h1.602c1.567,0,2.746-0.386,3.534-1.156
			C740.988,275.658,741.383,274.518,741.383,273.007z"/>
	</g>
</g>
<g>
	<g>
		<path opacity="0.1" fill="#59322D" enable-background="new    " d="M106.063,138.984h-0.064l1.732,52.44l101.107-52.245h-0.061
			c10.926-5.431,20.357-11.843,26.889-18.723c18.627-19.622,6.659-35.584-26.729-35.646s-75.556,15.793-94.184,35.415
			C108.223,127.105,105.466,133.532,106.063,138.984z"/>
		<path fill="#2AACE3" d="M54.686,98.609h-0.063l53.588,92.815l53.585-92.815h-0.063c6.003-9.65,9.482-21.033,9.482-33.232
			c0-34.796-28.209-63.005-63.004-63.005c-34.797,0-63.006,28.209-63.006,63.005C45.205,77.576,48.685,88.959,54.686,98.609z"/>
	</g>
	<g>
		<g opacity="0.25">
			<path fill="#FFFFFD" d="M60.577,46.038c5.726,0,7.006-2.763,8.151-5.929h4.985v47.157h-7.411V51.292h-5.726v-5.254H60.577z"/>
			<path fill="#FFFFFD" d="M104.435,75.545c0,7.949-3.638,12.261-11.318,12.261c-7.276,0-11.048-4.312-11.048-11.856v-1.213h7.006
				v1.685c0,3.368,1.482,4.647,3.84,4.647c2.627,0,4.109-1.279,4.109-5.793v-8.623c-1.28,2.694-3.57,4.177-6.872,4.177
				c-5.457,0-8.219-3.84-8.219-10.779v-8.623c0-7.545,3.975-11.856,11.25-11.856s11.25,4.312,11.25,11.856v24.117H104.435z
				 M97.024,59.443v-8.488c0-3.368-1.482-4.581-3.84-4.581s-3.84,1.213-3.84,4.581v8.488c0,3.369,1.482,4.648,3.84,4.648
				S97.024,62.812,97.024,59.443z"/>
			<path fill="#FFFFFD" d="M131.114,40.109v6.467L120.2,87.267h-7.411l10.846-40.421h-14.753V40.11L131.114,40.109L131.114,40.109z"
				/>
			<path fill="#FFFFFD" d="M150.315,51.696c0-4.244-1.482-5.389-3.84-5.389s-3.84,1.279-3.84,4.647v3.032h-7.006v-2.561
				c0-7.545,3.772-11.856,11.048-11.856c7.275,0,11.048,4.312,11.048,11.856v1.213c0,5.053-1.617,8.219-5.188,9.701
				c3.705,1.616,5.188,5.12,5.188,9.902v3.706c0,7.545-3.773,11.856-11.048,11.856c-7.276,0-11.048-4.312-11.048-11.856V72.04h7.006
				v4.379c0,3.368,1.482,4.647,3.84,4.647s3.84-1.145,3.84-5.321V72.04c0-4.379-1.482-5.996-4.851-5.996h-2.492v-6.737h2.896
				c2.762,0,4.446-1.212,4.446-4.984v-2.627H150.315z"/>
		</g>
		<g>
			<g>
				<path fill="#FFFFFF" d="M61.577,47.038c5.726,0,7.006-2.763,8.151-5.929h4.985v47.157h-7.411V52.292h-5.726v-5.254H61.577z"/>
				<path fill="#FFFFFF" d="M105.435,76.545c0,7.949-3.638,12.261-11.318,12.261c-7.276,0-11.048-4.312-11.048-11.856v-1.213h7.006
					v1.685c0,3.368,1.482,4.647,3.84,4.647c2.627,0,4.109-1.279,4.109-5.793v-8.623c-1.28,2.694-3.57,4.177-6.872,4.177
					c-5.457,0-8.219-3.84-8.219-10.779v-8.623c0-7.545,3.975-11.856,11.25-11.856s11.25,4.312,11.25,11.856v24.117H105.435z
					 M98.024,60.443v-8.488c0-3.368-1.482-4.581-3.84-4.581s-3.84,1.213-3.84,4.581v8.488c0,3.369,1.482,4.648,3.84,4.648
					S98.024,63.812,98.024,60.443z"/>
				<path fill="#FFFFFF" d="M132.114,41.109v6.467L121.2,88.267h-7.411l10.846-40.421h-14.753V41.11L132.114,41.109L132.114,41.109z
					"/>
				<path fill="#FFFFFF" d="M151.315,52.696c0-4.244-1.482-5.389-3.84-5.389s-3.84,1.279-3.84,4.647v3.032h-7.006v-2.561
					c0-7.545,3.772-11.856,11.048-11.856c7.275,0,11.048,4.312,11.048,11.856v1.213c0,5.053-1.617,8.219-5.188,9.701
					c3.705,1.616,5.188,5.12,5.188,9.902v3.706c0,7.545-3.773,11.856-11.048,11.856c-7.276,0-11.048-4.312-11.048-11.856V73.04
					h7.006v4.379c0,3.368,1.482,4.647,3.84,4.647s3.84-1.145,3.84-5.321V73.04c0-4.379-1.482-5.996-4.851-5.996h-2.492v-6.737h2.896
					c2.762,0,4.446-1.212,4.446-4.984v-2.627H151.315z"/>
			</g>
		</g>
	</g>
	<g>
		<polygon fill="#213C75" points="197.799,123.206 144.079,123.206 144.079,155.886 197.799,155.886 185.071,139.545 		"/>
		<polygon fill="#213C75" points="17.517,123.206 71.228,123.206 71.228,155.886 17.517,155.886 30.242,139.545 		"/>
		<polygon points="175.193,150.68 144.079,155.886 144.079,150.68 		"/>
		<polygon points="40.118,150.68 71.228,155.886 71.228,150.68 		"/>
	</g>
	<g>
		<rect x="40.118" y="117.996" fill="#4A5687" width="135.075" height="32.684"/>
	</g>
	<g>
		<path fill="#FFFFFF" d="M60.018,127.695c0,1.319-0.334,2.357-1.001,3.113s-1.595,1.134-2.783,1.134
			c-1.214,0-2.152-0.372-2.812-1.114s-0.99-1.791-0.99-3.145c0-1.342,0.331-2.383,0.993-3.122c0.662-0.738,1.602-1.107,2.82-1.107
			c1.185,0,2.109,0.376,2.775,1.128S60.018,126.371,60.018,127.695z M53.447,127.695c0,1.116,0.238,1.963,0.713,2.54
			c0.476,0.578,1.167,0.866,2.073,0.866c0.914,0,1.604-0.288,2.07-0.863s0.699-1.423,0.699-2.543c0-1.109-0.232-1.951-0.696-2.524
			s-1.151-0.86-2.062-0.86c-0.914,0-1.608,0.289-2.084,0.866S53.447,126.594,53.447,127.695z"/>
		<path fill="#FFFFFF" d="M68.083,123.583v5.336c0,0.939-0.284,1.679-0.852,2.217c-0.568,0.537-1.348,0.807-2.341,0.807
			s-1.761-0.271-2.304-0.812c-0.543-0.542-0.815-1.286-0.815-2.233v-5.313h0.959v5.381c0,0.688,0.188,1.217,0.564,1.585
			s0.929,0.553,1.658,0.553c0.696,0,1.231-0.186,1.607-0.556s0.564-0.901,0.564-1.593v-5.37h0.96V123.583z"/>
		<path fill="#FFFFFF" d="M71.224,128.4v3.429h-0.958v-8.246h2.262c1.011,0,1.758,0.194,2.242,0.581
			c0.483,0.388,0.725,0.971,0.725,1.749c0,1.09-0.553,1.827-1.658,2.211l2.239,3.705h-1.134l-1.997-3.429H71.224z M71.224,127.576
			h1.314c0.677,0,1.173-0.134,1.489-0.403s0.474-0.672,0.474-1.209c0-0.546-0.161-0.938-0.482-1.179
			c-0.322-0.241-0.838-0.361-1.548-0.361h-1.247V127.576z"/>
		<path fill="#FFFFFF" d="M81.365,131.829h-0.958v-8.246h4.597v0.852h-3.638v3.018h3.418v0.852h-3.418L81.365,131.829
			L81.365,131.829z"/>
		<path fill="#FFFFFF" d="M86.368,131.829v-8.246h0.958v8.246H86.368z"/>
		<path fill="#FFFFFF" d="M90.547,128.4v3.429h-0.958v-8.246h2.262c1.011,0,1.758,0.194,2.242,0.581
			c0.483,0.388,0.725,0.971,0.725,1.749c0,1.09-0.553,1.827-1.658,2.211l2.239,3.705h-1.134l-1.997-3.429H90.547z M90.547,127.576
			h1.314c0.677,0,1.173-0.134,1.489-0.403s0.474-0.672,0.474-1.209c0-0.546-0.161-0.938-0.482-1.179
			c-0.322-0.241-0.838-0.361-1.548-0.361h-1.247V127.576z"/>
		<path fill="#FFFFFF" d="M101.381,129.635c0,0.727-0.263,1.292-0.79,1.698s-1.241,0.609-2.143,0.609
			c-0.978,0-1.73-0.126-2.256-0.378v-0.926c0.338,0.144,0.707,0.256,1.105,0.339s0.793,0.124,1.185,0.124
			c0.639,0,1.121-0.121,1.444-0.364c0.323-0.242,0.485-0.579,0.485-1.012c0-0.286-0.057-0.52-0.172-0.702s-0.307-0.351-0.575-0.505
			c-0.269-0.154-0.678-0.329-1.227-0.524c-0.767-0.274-1.315-0.6-1.644-0.976c-0.329-0.376-0.494-0.867-0.494-1.473
			c0-0.635,0.239-1.141,0.716-1.517s1.109-0.564,1.895-0.564c0.82,0,1.574,0.15,2.262,0.451l-0.299,0.835
			c-0.681-0.286-1.343-0.429-1.985-0.429c-0.508,0-0.904,0.109-1.19,0.327s-0.428,0.521-0.428,0.908c0,0.285,0.052,0.52,0.158,0.702
			c0.105,0.183,0.283,0.35,0.533,0.502s0.632,0.32,1.147,0.505c0.865,0.308,1.46,0.639,1.785,0.992
			C101.218,128.61,101.381,129.071,101.381,129.635z"/>
		<path fill="#FFFFFF" d="M105.606,131.829h-0.959v-7.395h-2.611v-0.852h6.182v0.852h-2.611L105.606,131.829L105.606,131.829z"/>
		<path fill="#FFFFFF" d="M116.085,127.509h2.803v4.01c-0.437,0.14-0.88,0.245-1.331,0.316s-0.974,0.107-1.568,0.107
			c-1.248,0-2.22-0.372-2.916-1.114s-1.043-1.783-1.043-3.122c0-0.857,0.172-1.608,0.516-2.253s0.839-1.138,1.486-1.478
			c0.647-0.341,1.405-0.511,2.273-0.511c0.88,0,1.7,0.162,2.459,0.485l-0.372,0.846c-0.745-0.315-1.461-0.474-2.149-0.474
			c-1.004,0-1.788,0.299-2.352,0.896s-0.846,1.427-0.846,2.487c0,1.113,0.271,1.957,0.815,2.532s1.341,0.863,2.394,0.863
			c0.572,0,1.13-0.065,1.675-0.197v-2.538h-1.844V127.509z"/>
		<path fill="#FFFFFF" d="M121.826,128.4v3.429h-0.958v-8.246h2.262c1.011,0,1.758,0.194,2.242,0.581
			c0.483,0.388,0.725,0.971,0.725,1.749c0,1.09-0.553,1.827-1.658,2.211l2.239,3.705h-1.134l-1.997-3.429H121.826z M121.826,127.576
			h1.314c0.677,0,1.173-0.134,1.489-0.403s0.474-0.672,0.474-1.209c0-0.546-0.161-0.938-0.482-1.179
			c-0.322-0.241-0.838-0.361-1.548-0.361h-1.247V127.576z"/>
		<path fill="#FFFFFF" d="M135.165,127.695c0,1.319-0.334,2.357-1.001,3.113s-1.595,1.134-2.783,1.134
			c-1.214,0-2.152-0.372-2.812-1.114s-0.99-1.791-0.99-3.145c0-1.342,0.331-2.383,0.993-3.122c0.662-0.738,1.602-1.107,2.82-1.107
			c1.185,0,2.109,0.376,2.775,1.128S135.165,126.371,135.165,127.695z M128.594,127.695c0,1.116,0.238,1.963,0.713,2.54
			c0.476,0.578,1.167,0.866,2.073,0.866c0.914,0,1.604-0.288,2.07-0.863s0.699-1.423,0.699-2.543c0-1.109-0.232-1.951-0.696-2.524
			s-1.151-0.86-2.062-0.86c-0.914,0-1.608,0.289-2.084,0.866S128.594,126.594,128.594,127.695z"/>
		<path fill="#FFFFFF" d="M144.2,131.829h-0.947l-1.664-5.521c-0.079-0.244-0.167-0.553-0.265-0.925
			c-0.098-0.372-0.149-0.596-0.152-0.672c-0.083,0.497-0.214,1.04-0.395,1.631l-1.613,5.487h-0.948l-2.194-8.246h1.015l1.303,5.094
			c0.181,0.714,0.312,1.36,0.395,1.939c0.102-0.688,0.252-1.36,0.451-2.019l1.478-5.015h1.015l1.551,5.06
			c0.18,0.583,0.333,1.24,0.457,1.974c0.072-0.533,0.207-1.185,0.406-1.951l1.297-5.082h1.015L144.2,131.829z"/>
		<path fill="#FFFFFF" d="M150.235,131.829h-0.959v-7.395h-2.611v-0.852h6.182v0.852h-2.611v7.395H150.235z"/>
		<path fill="#FFFFFF" d="M160.348,131.829h-0.959v-3.88h-4.343v3.88h-0.958v-8.246h0.958v3.509h4.343v-3.509h0.959V131.829z"/>
		<path fill="#FFFFFF" d="M57.589,144.43H56.63v-3.88h-4.343v3.88h-0.958v-8.246h0.958v3.509h4.343v-3.509h0.959V144.43z"/>
		<path fill="#FFFFFF" d="M67.008,140.296c0,1.319-0.334,2.357-1.001,3.113s-1.595,1.134-2.783,1.134
			c-1.214,0-2.152-0.372-2.812-1.114s-0.99-1.791-0.99-3.145c0-1.342,0.331-2.383,0.993-3.122c0.662-0.738,1.602-1.107,2.82-1.107
			c1.185,0,2.109,0.376,2.775,1.128S67.008,138.972,67.008,140.296z M60.438,140.296c0,1.116,0.238,1.963,0.713,2.54
			c0.476,0.578,1.167,0.866,2.073,0.866c0.914,0,1.604-0.288,2.07-0.863s0.699-1.423,0.699-2.543c0-1.109-0.232-1.951-0.696-2.524
			s-1.151-0.86-2.062-0.86c-0.914,0-1.608,0.289-2.084,0.866S60.438,139.194,60.438,140.296z"/>
		<path fill="#FFFFFF" d="M69.806,141.001v3.429h-0.958v-8.246h2.262c1.011,0,1.758,0.194,2.242,0.581
			c0.483,0.388,0.725,0.971,0.725,1.749c0,1.09-0.553,1.827-1.658,2.211l2.239,3.705h-1.134l-1.997-3.429L69.806,141.001
			L69.806,141.001z M69.806,140.177h1.314c0.677,0,1.173-0.134,1.489-0.403s0.474-0.672,0.474-1.209
			c0-0.546-0.161-0.938-0.482-1.179c-0.322-0.241-0.838-0.361-1.548-0.361h-1.247V140.177z"/>
		<path fill="#FFFFFF" d="M79.636,144.43l-2.797-7.31h-0.045c0.053,0.579,0.079,1.268,0.079,2.064v5.245h-0.885v-8.246h1.444
			l2.611,6.803h0.045l2.634-6.803h1.433v8.246h-0.958v-5.312c0-0.609,0.026-1.271,0.079-1.985h-0.045l-2.82,7.298H79.636z"/>
		<path fill="#FFFFFF" d="M93.573,140.296c0,1.319-0.334,2.357-1.001,3.113s-1.595,1.134-2.783,1.134
			c-1.214,0-2.152-0.372-2.812-1.114s-0.99-1.791-0.99-3.145c0-1.342,0.331-2.383,0.993-3.122c0.662-0.738,1.602-1.107,2.82-1.107
			c1.185,0,2.109,0.376,2.775,1.128S93.573,138.972,93.573,140.296z M87.002,140.296c0,1.116,0.238,1.963,0.713,2.54
			c0.476,0.578,1.167,0.866,2.073,0.866c0.914,0,1.604-0.288,2.07-0.863s0.699-1.423,0.699-2.543c0-1.109-0.232-1.951-0.696-2.524
			s-1.151-0.86-2.062-0.86c-0.914,0-1.608,0.289-2.084,0.866S87.002,139.194,87.002,140.296z"/>
		<path fill="#FFFFFF" d="M101.853,144.43h-1.094l-4.506-6.92h-0.045c0.06,0.812,0.09,1.557,0.09,2.233v4.687h-0.885v-8.246h1.083
			l4.495,6.893h0.045c-0.008-0.102-0.024-0.428-0.051-0.979s-0.036-0.944-0.028-1.182v-4.732h0.897L101.853,144.43L101.853,144.43z"
			/>
		<path fill="#FFFFFF" d="M108.716,144.43h-4.597v-8.246h4.597v0.852h-3.638v2.657h3.418v0.846h-3.418v3.034h3.638V144.43z"/>
		<path fill="#FFFFFF" d="M118.772,138.587c0,0.834-0.285,1.477-0.854,1.926c-0.569,0.449-1.384,0.674-2.445,0.674h-0.97v3.243
			h-0.958v-8.246h2.137C117.742,136.184,118.772,136.984,118.772,138.587z M114.502,140.363h0.863c0.85,0,1.464-0.138,1.844-0.412
			c0.379-0.274,0.569-0.714,0.569-1.319c0-0.545-0.179-0.951-0.536-1.219c-0.357-0.267-0.914-0.4-1.669-0.4h-1.072L114.502,140.363
			L114.502,140.363z"/>
		<path fill="#FFFFFF" d="M121.457,141.001v3.429h-0.958v-8.246h2.262c1.011,0,1.758,0.194,2.242,0.581
			c0.483,0.388,0.725,0.971,0.725,1.749c0,1.09-0.553,1.827-1.658,2.211l2.239,3.705h-1.134l-1.997-3.429L121.457,141.001
			L121.457,141.001z M121.457,140.177h1.314c0.677,0,1.173-0.134,1.489-0.403s0.474-0.672,0.474-1.209
			c0-0.546-0.161-0.938-0.482-1.179c-0.322-0.241-0.838-0.361-1.548-0.361h-1.247V140.177z"/>
		<path fill="#FFFFFF" d="M134.796,140.296c0,1.319-0.334,2.357-1.001,3.113s-1.595,1.134-2.783,1.134
			c-1.214,0-2.152-0.372-2.812-1.114s-0.99-1.791-0.99-3.145c0-1.342,0.331-2.383,0.993-3.122c0.662-0.738,1.602-1.107,2.82-1.107
			c1.185,0,2.109,0.376,2.775,1.128S134.796,138.972,134.796,140.296z M128.225,140.296c0,1.116,0.238,1.963,0.713,2.54
			c0.476,0.578,1.167,0.866,2.073,0.866c0.914,0,1.604-0.288,2.07-0.863s0.699-1.423,0.699-2.543c0-1.109-0.232-1.951-0.696-2.524
			s-1.151-0.86-2.062-0.86c-0.914,0-1.608,0.289-2.084,0.866S128.225,139.194,128.225,140.296z"/>
		<path fill="#FFFFFF" d="M143.216,140.228c0,1.361-0.369,2.402-1.108,3.122s-1.802,1.08-3.189,1.08h-2.284v-8.246h2.526
			c1.282,0,2.279,0.355,2.989,1.066C142.861,137.961,143.216,138.953,143.216,140.228z M142.201,140.262
			c0-1.075-0.27-1.886-0.809-2.431s-1.341-0.818-2.406-0.818h-1.393v6.588h1.167c1.143,0,2.002-0.281,2.578-0.843
			C141.913,142.195,142.201,141.363,142.201,140.262z"/>
		<path fill="#FFFFFF" d="M151.281,136.184v5.336c0,0.939-0.284,1.679-0.852,2.217c-0.568,0.537-1.348,0.807-2.341,0.807
			s-1.761-0.271-2.304-0.812c-0.543-0.542-0.815-1.286-0.815-2.233v-5.313h0.959v5.381c0,0.688,0.188,1.217,0.564,1.585
			s0.929,0.553,1.658,0.553c0.696,0,1.231-0.186,1.607-0.556s0.564-0.901,0.564-1.593v-5.37h0.96L151.281,136.184L151.281,136.184z"
			/>
		<path fill="#FFFFFF" d="M156.995,136.923c-0.906,0-1.621,0.302-2.146,0.905c-0.524,0.604-0.787,1.43-0.787,2.479
			c0,1.079,0.253,1.913,0.759,2.502c0.505,0.588,1.227,0.882,2.163,0.882c0.576,0,1.231-0.103,1.969-0.31v0.84
			c-0.572,0.215-1.277,0.322-2.115,0.322c-1.214,0-2.152-0.369-2.812-1.105c-0.66-0.737-0.99-1.784-0.99-3.142
			c0-0.85,0.159-1.595,0.477-2.233c0.318-0.64,0.776-1.132,1.376-1.479c0.6-0.346,1.306-0.519,2.118-0.519
			c0.865,0,1.62,0.158,2.267,0.474l-0.406,0.823C158.243,137.069,157.619,136.923,156.995,136.923z"/>
		<path fill="#FFFFFF" d="M163.289,144.43h-0.959v-7.395h-2.611v-0.852h6.182v0.852h-2.611v7.395H163.289z"/>
	</g>
</g>
<g>
	<path opacity="0.1" fill="#59322D" enable-background="new    " d="M371.727,201.521h-0.076l2.072,62.773l121.031-62.539h-0.074
		c13.08-6.501,24.371-14.177,32.19-22.414c22.294-23.487,7.97-42.594-31.998-42.669c-39.97-0.074-90.445,18.904-112.743,42.393
		C374.313,187.303,371.012,194.994,371.727,201.521z"/>
	<path fill="#E44C25" d="M310.23,153.189h-0.077l64.145,111.106l64.145-111.106h-0.075c7.184-11.55,11.349-25.176,11.349-39.78
		c0-41.652-33.767-75.417-75.418-75.417c-41.652,0-75.42,33.765-75.42,75.417C298.879,128.013,303.044,141.639,310.23,153.189z"/>
</g>
<g>
	<g opacity="0.25">
		<path fill="#FFFFFD" d="M315.697,92.562c6.854,0,8.387-3.307,9.758-7.097h5.967v56.45h-8.871V98.853h-6.854V92.562z"/>
		<path fill="#FFFFFD" d="M368.197,127.884c0,9.517-4.355,14.678-13.548,14.678c-8.709,0-13.225-5.161-13.225-14.193v-1.452h8.387
			v2.017c0,4.032,1.774,5.564,4.597,5.564c3.145,0,4.919-1.532,4.919-6.936V117.24c-1.532,3.226-4.274,5-8.226,5
			c-6.532,0-9.838-4.597-9.838-12.903V99.014c0-9.031,4.758-14.192,13.467-14.192s13.467,5.161,13.467,14.192L368.197,127.884
			L368.197,127.884z M359.327,108.61V98.449c0-4.032-1.774-5.483-4.597-5.483c-2.823,0-4.597,1.451-4.597,5.483v10.161
			c0,4.032,1.774,5.564,4.597,5.564C357.552,114.175,359.327,112.643,359.327,108.61z"/>
		<path fill="#FFFFFD" d="M400.133,127.884c0,9.517-4.354,14.678-13.548,14.678c-8.71,0-13.226-5.161-13.226-14.193v-1.452h8.387
			v2.017c0,4.032,1.774,5.564,4.597,5.564c3.146,0,4.919-1.532,4.919-6.936V117.24c-1.532,3.226-4.273,5-8.226,5
			c-6.532,0-9.838-4.597-9.838-12.903V99.014c0-9.031,4.758-14.192,13.467-14.192c8.71,0,13.468,5.161,13.468,14.192
			L400.133,127.884L400.133,127.884z M391.262,108.61V98.449c0-4.032-1.773-5.483-4.597-5.483c-2.822,0-4.597,1.451-4.597,5.483
			v10.161c0,4.032,1.774,5.564,4.597,5.564C389.488,114.175,391.262,112.643,391.262,108.61z"/>
		<path fill="#FFFFFD" d="M414.004,123.69v5.242c0,4.032,1.774,5.483,4.597,5.483c2.823,0,4.597-1.451,4.597-5.483v-12.419
			c0-4.032-1.773-5.564-4.597-5.564c-2.822,0-4.597,1.532-4.597,5.564v1.693h-8.387l1.613-32.741h23.386v8.064h-15.402
			l-0.726,13.468c1.612-2.661,4.193-4.113,7.741-4.113c6.532,0,9.839,4.597,9.839,12.903v12.58c0,9.032-4.517,14.193-13.226,14.193
			s-13.226-5.161-13.226-14.193v-4.678L414.004,123.69L414.004,123.69z"/>
	</g>
	<g>
		<g>
			<path fill="#FFFFFF" d="M316.697,93.562c6.854,0,8.387-3.307,9.758-7.097h5.967v56.45h-8.871V99.853h-6.854V93.562z"/>
			<path fill="#FFFFFF" d="M369.197,128.884c0,9.517-4.355,14.678-13.548,14.678c-8.709,0-13.225-5.161-13.225-14.193v-1.452h8.387
				v2.017c0,4.032,1.774,5.564,4.597,5.564c3.145,0,4.919-1.532,4.919-6.936V118.24c-1.532,3.226-4.274,5-8.226,5
				c-6.532,0-9.838-4.597-9.838-12.903v-10.322c0-9.031,4.758-14.192,13.467-14.192s13.467,5.161,13.467,14.192L369.197,128.884
				L369.197,128.884z M360.327,109.61V99.449c0-4.032-1.774-5.483-4.597-5.483c-2.823,0-4.597,1.451-4.597,5.483v10.161
				c0,4.032,1.774,5.564,4.597,5.564C358.552,115.175,360.327,113.643,360.327,109.61z"/>
			<path fill="#FFFFFF" d="M401.133,128.884c0,9.517-4.354,14.678-13.548,14.678c-8.71,0-13.226-5.161-13.226-14.193v-1.452h8.387
				v2.017c0,4.032,1.774,5.564,4.597,5.564c3.146,0,4.919-1.532,4.919-6.936V118.24c-1.532,3.226-4.273,5-8.226,5
				c-6.532,0-9.838-4.597-9.838-12.903v-10.322c0-9.031,4.758-14.192,13.467-14.192c8.71,0,13.468,5.161,13.468,14.192
				L401.133,128.884L401.133,128.884z M392.262,109.61V99.449c0-4.032-1.773-5.483-4.597-5.483c-2.822,0-4.597,1.451-4.597,5.483
				v10.161c0,4.032,1.774,5.564,4.597,5.564C390.488,115.175,392.262,113.643,392.262,109.61z"/>
			<path fill="#FFFFFF" d="M415.004,124.69v5.242c0,4.032,1.774,5.483,4.597,5.483c2.823,0,4.597-1.451,4.597-5.483v-12.419
				c0-4.032-1.773-5.564-4.597-5.564c-2.822,0-4.597,1.532-4.597,5.564v1.693h-8.387l1.613-32.741h23.386v8.064h-15.402
				l-0.726,13.468c1.612-2.661,4.193-4.113,7.741-4.113c6.532,0,9.839,4.597,9.839,12.903v12.58c0,9.032-4.517,14.193-13.226,14.193
				s-13.226-5.161-13.226-14.193v-4.678L415.004,124.69L415.004,124.69z"/>
		</g>
	</g>
</g>
<g>
	<polygon fill="#213C75" points="483.789,182.634 419.483,182.634 419.483,221.753 483.789,221.753 468.553,202.192 	"/>
	<polygon fill="#213C75" points="267.985,182.634 332.278,182.634 332.278,221.753 267.985,221.753 283.217,202.192 	"/>
	<polygon points="456.729,215.52 419.483,221.753 419.483,215.52 	"/>
	<polygon points="295.04,215.52 332.278,221.753 332.278,215.52 	"/>
</g>
<g>
	<rect x="295.04" y="176.396" fill="#4A5687" width="161.69" height="39.124"/>
</g>
<path fill="#FFFFFF" d="M330.031,192.958h-1.148v-9.87h5.502v1.02h-4.354v3.611h4.091v1.02h-4.091V192.958z"/>
<path fill="#FFFFFF" d="M343.898,187.929c0,1.629-0.442,2.875-1.327,3.736c-0.884,0.862-2.157,1.293-3.818,1.293h-2.734v-9.87h3.025
	c1.535,0,2.728,0.425,3.578,1.275S343.898,186.402,343.898,187.929z M342.683,187.969c0-1.287-0.323-2.257-0.969-2.91
	c-0.646-0.652-1.606-0.979-2.879-0.979h-1.667v7.886h1.397c1.368,0,2.396-0.337,3.085-1.01
	C342.339,190.283,342.683,189.288,342.683,187.969z"/>
<path fill="#FFFFFF" d="M352.304,192.958l-1.229-3.14h-3.956l-1.215,3.14h-1.161l3.902-9.911h0.965l3.882,9.911H352.304z
	 M350.717,188.786l-1.148-3.059c-0.148-0.388-0.302-0.862-0.459-1.425c-0.099,0.433-0.241,0.907-0.425,1.425l-1.161,3.059H350.717z"
	/>
<path fill="#FFFFFF" d="M364.645,192.958l-1.229-3.14h-3.956l-1.215,3.14h-1.161l3.902-9.911h0.965l3.882,9.911H364.645z
	 M363.059,188.786l-1.148-3.059c-0.148-0.388-0.302-0.862-0.459-1.425c-0.099,0.433-0.241,0.907-0.425,1.425l-1.161,3.059H363.059z"
	/>
<path fill="#FFFFFF" d="M373.449,185.964c0,0.999-0.341,1.768-1.023,2.306c-0.682,0.537-1.658,0.807-2.927,0.807h-1.161v3.882
	h-1.148v-9.87h2.559C372.216,183.088,373.449,184.046,373.449,185.964z M368.338,188.09h1.033c1.017,0,1.753-0.164,2.208-0.492
	c0.454-0.329,0.682-0.855,0.682-1.58c0-0.652-0.214-1.139-0.641-1.458c-0.428-0.319-1.094-0.479-1.999-0.479h-1.283L368.338,188.09
	L368.338,188.09z"/>
<path fill="#FFFFFF" d="M381.773,185.964c0,0.999-0.342,1.768-1.023,2.306c-0.682,0.537-1.656,0.807-2.926,0.807h-1.162v3.882
	h-1.148v-9.87h2.56C380.539,183.088,381.773,184.046,381.773,185.964z M376.663,188.09h1.033c1.018,0,1.754-0.164,2.207-0.492
	c0.455-0.329,0.684-0.855,0.684-1.58c0-0.652-0.215-1.139-0.643-1.458s-1.094-0.479-1.998-0.479h-1.283V188.09z"/>
<path fill="#FFFFFF" d="M384.987,188.854v4.104h-1.147v-9.87h2.707c1.211,0,2.105,0.231,2.684,0.695
	c0.578,0.463,0.867,1.161,0.867,2.093c0,1.306-0.661,2.188-1.984,2.646l2.68,4.436h-1.356l-2.391-4.104L384.987,188.854
	L384.987,188.854z M384.987,187.867h1.573c0.81,0,1.404-0.16,1.782-0.482c0.378-0.321,0.567-0.805,0.567-1.448
	c0-0.652-0.193-1.123-0.578-1.411s-1.002-0.432-1.853-0.432h-1.492v3.773H384.987z"/>
<path fill="#FFFFFF" d="M400.954,188.01c0,1.579-0.399,2.821-1.198,3.727c-0.8,0.904-1.91,1.356-3.332,1.356
	c-1.454,0-2.576-0.444-3.366-1.333c-0.789-0.889-1.185-2.144-1.185-3.764c0-1.607,0.396-2.853,1.188-3.737s1.917-1.326,3.376-1.326
	c1.417,0,2.524,0.45,3.321,1.35C400.556,185.183,400.954,186.425,400.954,188.01z M393.089,188.01c0,1.336,0.284,2.351,0.854,3.041
	c0.569,0.691,1.396,1.036,2.481,1.036c1.094,0,1.919-0.344,2.478-1.033c0.558-0.688,0.837-1.703,0.837-3.044
	c0-1.328-0.277-2.335-0.834-3.021c-0.556-0.687-1.378-1.03-2.467-1.03c-1.094,0-1.926,0.346-2.495,1.037
	C393.373,185.686,393.089,186.69,393.089,188.01z"/>
<path fill="#FFFFFF" d="M408.792,183.088h1.235l-3.558,9.87h-1.134l-3.538-9.87h1.215l2.269,6.387
	c0.262,0.733,0.469,1.447,0.621,2.14c0.162-0.729,0.374-1.456,0.635-2.181L408.792,183.088z"/>
<path fill="#FFFFFF" d="M416.887,192.958h-5.502v-9.87h5.502v1.02h-4.354v3.18h4.091v1.013h-4.091v3.632h4.354V192.958z"/>
<path fill="#FFFFFF" d="M424.645,190.332c0,0.868-0.315,1.546-0.945,2.032c-0.63,0.485-1.485,0.729-2.565,0.729
	c-1.17,0-2.07-0.15-2.7-0.452v-1.107c0.405,0.171,0.846,0.307,1.323,0.405c0.477,0.1,0.949,0.148,1.418,0.148
	c0.765,0,1.341-0.145,1.728-0.436c0.388-0.29,0.581-0.694,0.581-1.212c0-0.342-0.068-0.622-0.206-0.84
	c-0.137-0.219-0.367-0.42-0.688-0.604c-0.322-0.185-0.812-0.394-1.469-0.628c-0.918-0.328-1.574-0.718-1.968-1.168
	s-0.591-1.037-0.591-1.762c0-0.761,0.286-1.366,0.857-1.816s1.328-0.676,2.269-0.676c0.981,0,1.884,0.181,2.707,0.541l-0.357,0.999
	c-0.814-0.342-1.606-0.514-2.377-0.514c-0.607,0-1.082,0.131-1.424,0.392c-0.343,0.262-0.514,0.624-0.514,1.087
	c0,0.343,0.063,0.623,0.189,0.841c0.126,0.219,0.339,0.419,0.638,0.601c0.3,0.183,0.758,0.384,1.374,0.604
	c1.035,0.369,1.747,0.766,2.137,1.188S424.645,189.656,424.645,190.332z"/>
<path fill="#FFFFFF" d="M333.109,208.042h-1.31l-5.395-8.284h-0.054c0.072,0.973,0.108,1.863,0.108,2.674v5.61h-1.06v-9.87h1.296
	l5.381,8.25h0.054c-0.009-0.122-0.029-0.512-0.061-1.172c-0.032-0.659-0.043-1.131-0.034-1.414v-5.664h1.073v9.87H333.109z"/>
<path fill="#FFFFFF" d="M344.391,203.094c0,1.579-0.399,2.821-1.198,3.727c-0.799,0.904-1.91,1.356-3.332,1.356
	c-1.454,0-2.576-0.444-3.366-1.333s-1.185-2.144-1.185-3.764c0-1.607,0.396-2.853,1.188-3.737c0.792-0.885,1.917-1.326,3.375-1.326
	c1.418,0,2.525,0.45,3.322,1.35C343.993,200.267,344.391,201.509,344.391,203.094z M336.525,203.094
	c0,1.336,0.285,2.351,0.854,3.041c0.569,0.691,1.396,1.036,2.481,1.036c1.093,0,1.919-0.344,2.478-1.033
	c0.558-0.688,0.837-1.703,0.837-3.044c0-1.328-0.278-2.335-0.833-3.021c-0.556-0.687-1.378-1.03-2.468-1.03
	c-1.094,0-1.925,0.346-2.495,1.037C336.81,200.77,336.525,201.774,336.525,203.094z"/>
<path fill="#FFFFFF" d="M347.74,203.938v4.104h-1.148v-9.87h2.708c1.21,0,2.105,0.231,2.684,0.695
	c0.578,0.463,0.868,1.161,0.868,2.093c0,1.306-0.662,2.188-1.985,2.646l2.681,4.436h-1.357l-2.39-4.104L347.74,203.938
	L347.74,203.938z M347.74,202.951h1.573c0.811,0,1.404-0.16,1.783-0.482c0.378-0.321,0.567-0.805,0.567-1.448
	c0-0.652-0.192-1.123-0.577-1.411s-1.002-0.432-1.854-0.432h-1.492L347.74,202.951L347.74,202.951z"/>
<path fill="#FFFFFF" d="M363.018,203.013c0,1.629-0.442,2.875-1.327,3.736c-0.884,0.862-2.157,1.293-3.818,1.293h-2.734v-9.87h3.025
	c1.535,0,2.728,0.425,3.578,1.275S363.018,201.486,363.018,203.013z M361.803,203.053c0-1.287-0.323-2.257-0.969-2.91
	c-0.646-0.652-1.606-0.979-2.879-0.979h-1.667v7.886h1.397c1.368,0,2.396-0.337,3.085-1.01
	C361.458,205.367,361.803,204.372,361.803,203.053z"/>
<path fill="#FFFFFF" d="M365.219,208.042v-9.87h1.148v9.87H365.219z"/>
<path fill="#FFFFFF" d="M372.112,208.042h-1.147v-8.851h-3.126v-1.02h7.399v1.02h-3.126L372.112,208.042L372.112,208.042z"/>
<path fill="#FFFFFF" d="M377.871,203.938v4.104h-1.148v-9.87h2.708c1.211,0,2.105,0.231,2.684,0.695
	c0.578,0.463,0.867,1.161,0.867,2.093c0,1.306-0.661,2.188-1.984,2.646l2.68,4.436h-1.356l-2.391-4.104L377.871,203.938
	L377.871,203.938z M377.871,202.951h1.573c0.81,0,1.404-0.16,1.782-0.482c0.378-0.321,0.567-0.805,0.567-1.448
	c0-0.652-0.193-1.123-0.578-1.411s-1.002-0.432-1.853-0.432h-1.492v3.773H377.871z"/>
<path fill="#FFFFFF" d="M393.838,203.094c0,1.579-0.399,2.821-1.198,3.727c-0.8,0.904-1.91,1.356-3.332,1.356
	c-1.454,0-2.576-0.444-3.366-1.333c-0.789-0.889-1.185-2.144-1.185-3.764c0-1.607,0.396-2.853,1.188-3.737s1.917-1.326,3.376-1.326
	c1.417,0,2.524,0.45,3.321,1.35C393.439,200.267,393.838,201.509,393.838,203.094z M385.973,203.094
	c0,1.336,0.284,2.351,0.854,3.041c0.569,0.691,1.396,1.036,2.481,1.036c1.094,0,1.919-0.344,2.478-1.033
	c0.558-0.688,0.837-1.703,0.837-3.044c0-1.328-0.277-2.335-0.834-3.021c-0.556-0.687-1.378-1.03-2.467-1.03
	c-1.094,0-1.926,0.346-2.495,1.037C386.257,200.77,385.973,201.774,385.973,203.094z"/>
<path fill="#FFFFFF" d="M402.297,201.048c0,0.999-0.341,1.768-1.022,2.306c-0.682,0.537-1.657,0.807-2.927,0.807h-1.161v3.882
	h-1.147v-9.87h2.559C401.063,198.172,402.297,199.13,402.297,201.048z M397.187,203.174h1.033c1.017,0,1.753-0.164,2.207-0.492
	c0.455-0.329,0.683-0.855,0.683-1.58c0-0.652-0.214-1.139-0.642-1.458s-1.094-0.479-1.999-0.479h-1.282V203.174z"/>
<path fill="#FFFFFF" d="M404.363,208.042v-9.87h1.147v9.87H404.363z"/>
<path fill="#FFFFFF" d="M415.929,208.042h-1.311l-5.394-8.284h-0.055c0.072,0.973,0.108,1.863,0.108,2.674v5.61h-1.06v-9.87h1.296
	l5.381,8.25h0.054c-0.009-0.122-0.029-0.512-0.061-1.172c-0.031-0.659-0.043-1.131-0.034-1.414v-5.664h1.074v9.87H415.929z"/>
<path fill="#FFFFFF" d="M417.96,201.335c0-0.585,0.147-1.136,0.44-1.648c0.292-0.513,0.695-0.917,1.209-1.213
	c0.512-0.296,1.065-0.445,1.657-0.445c0.586,0,1.136,0.147,1.649,0.44c0.512,0.293,0.917,0.696,1.213,1.209
	c0.296,0.513,0.444,1.065,0.444,1.657c0,0.578-0.143,1.12-0.427,1.627c-0.285,0.507-0.683,0.913-1.196,1.218
	c-0.513,0.305-1.074,0.457-1.684,0.457c-0.607,0-1.166-0.151-1.679-0.455c-0.512-0.303-0.912-0.708-1.198-1.216
	C418.103,202.459,417.96,201.916,417.96,201.335z M418.422,201.335c0,0.507,0.128,0.981,0.383,1.423s0.603,0.789,1.044,1.042
	c0.441,0.254,0.913,0.38,1.418,0.38c0.51,0,0.983-0.127,1.42-0.382s0.783-0.6,1.04-1.035c0.257-0.436,0.385-0.91,0.385-1.427
	c0-0.51-0.127-0.983-0.382-1.42c-0.255-0.436-0.6-0.783-1.035-1.04c-0.436-0.257-0.911-0.385-1.427-0.385
	c-0.51,0-0.983,0.128-1.42,0.383s-0.783,0.6-1.04,1.035C418.551,200.344,418.422,200.819,418.422,201.335z M422.607,200.535
	c0,0.234-0.062,0.442-0.187,0.622c-0.124,0.18-0.3,0.315-0.525,0.402l1.046,1.737h-0.738l-0.91-1.557h-0.594v1.557h-0.651v-3.917
	h1.148c0.486,0,0.843,0.095,1.071,0.285C422.493,199.855,422.607,200.145,422.607,200.535z M420.699,201.199h0.475
	c0.234,0,0.423-0.061,0.565-0.182c0.143-0.122,0.214-0.276,0.214-0.464c0-0.22-0.063-0.378-0.189-0.473s-0.325-0.143-0.598-0.143
	H420.7L420.699,201.199L420.699,201.199z"/>
	<g>
		<text transform="matrix(1 0 0 1 306.1255 307.791)" fill="#676464" font-family="Arial, Helvetica, sans-serif" font-size="12">Norditropin<tspan font-size="7" dy="-4">®</tspan> <tspan dy="4">was first </tspan></text>
		<text transform="matrix(1 0 0 1 306.1255 323.791)" fill="#676464" font-family="Arial, Helvetica, sans-serif" font-size="12">approved for use in the </text>
		<text transform="matrix(1 0 0 1 306.1255 339.791)" fill="#676464" font-family="Arial, Helvetica, sans-serif" font-size="12">United States in 1995 by </text>
		<text transform="matrix(1 0 0 1 306.1255 355.791)" fill="#676464" font-family="Arial, Helvetica, sans-serif" font-size="12">the Food and Drug </text>
		<text transform="matrix(1 0 0 1 306.1255 371.791)" fill="#676464" font-family="Arial, Helvetica, sans-serif" font-size="12">Administration (FDA).</text>
	</g>
	<g>
		<text transform="matrix(1 0 0 1 595.1602 379.6016)" fill="#676464" font-family="Arial, Helvetica, sans-serif" font-size="12">Norditropin<tspan font-size="7" dy="-4">®</tspan> <tspan dy="4">helps people </tspan></text>
		<text transform="matrix(1 0 0 1 595.1602 395.6016)" fill="#676464" font-family="Arial, Helvetica, sans-serif" font-size="12">in over 80 countries </text>
		<text transform="matrix(1 0 0 1 595.1602 411.6016)" fill="#676464" font-family="Arial, Helvetica, sans-serif" font-size="12">around the world.</text>
	</g>
<g>
	<text transform="matrix(1 0 0 1 40.1177 236.9111)" fill="#676464" font-family="Arial, Helvetica, sans-serif" font-size="12">Novo Nordisk launched its </text>
	<text transform="matrix(1 0 0 1 40.1177 252.9111)" fill="#676464" font-family="Arial, Helvetica, sans-serif" font-size="12">first growth hormone product, </text>
	<text transform="matrix(1 0 0 1 40.1177 268.9111)" fill="#676464" font-family="Arial, Helvetica, sans-serif" font-size="12">called Nanormon<tspan font-size="7" dy="-4">®</tspan><tspan dy="4">, in 1973.</tspan></text>
</g>
</svg>
